<?xml version="1.0" encoding="UTF-8" standalone="no"?>

<svg xmlns="http://www.w3.org/2000/svg" width="155" height="48" viewBox="0 0 155 48"><g fill="none" fill-rule="evenodd" transform="translate(1 1)"><rect width="152.876" height="46" fill="#FFF" stroke="#E6E6E6" rx="4.158"></rect><path d="M59.095 34.255h2.283L56.38 19.836h-2.312l-4.999 14.42h2.207l1.276-3.828h5.277l1.266 3.827zm-3.981-11.8h.163l2.005 6.095h-4.183l2.015-6.096zm12.319.739c-1.42 0-2.648.74-3.281 1.978h-.154v-1.798h-1.986v14.408h2.063v-5.175h.163c.547 1.149 1.727 1.828 3.214 1.828 2.638 0 4.317-2.168 4.317-5.626 0-3.457-1.679-5.615-4.336-5.615zm-.585 9.313c-1.727 0-2.811-1.42-2.811-3.688 0-2.278 1.084-3.697 2.82-3.697 1.746 0 2.792 1.39 2.792 3.687 0 2.309-1.046 3.698-2.801 3.698zm11.283-9.313c-1.42 0-2.648.74-3.281 1.978h-.154v-1.798H72.71v14.408h2.063v-5.175h.163c.547 1.149 1.727 1.828 3.214 1.828 2.638 0 4.317-2.168 4.317-5.626 0-3.457-1.679-5.615-4.336-5.615zm-.586 9.313c-1.726 0-2.81-1.42-2.81-3.688 0-2.278 1.084-3.697 2.82-3.697 1.746 0 2.792 1.39 2.792 3.687 0 2.309-1.046 3.698-2.802 3.698zm9.289-2.129c.153 2.578 2.216 4.227 5.286 4.227 3.281 0 5.334-1.729 5.334-4.487 0-2.168-1.17-3.367-4.01-4.056l-1.526-.39c-1.803-.44-2.532-1.03-2.532-2.058 0-1.3 1.132-2.149 2.83-2.149 1.612 0 2.724.83 2.926 2.159h2.091c-.124-2.429-2.177-4.137-4.988-4.137-3.023 0-5.037 1.708-5.037 4.276 0 2.119 1.141 3.378 3.645 3.987l1.785.45c1.832.45 2.638 1.11 2.638 2.208 0 1.28-1.266 2.208-2.993 2.208-1.852 0-3.137-.869-3.32-2.238h-2.13zm12.396-9.642v2.688h-1.718v1.808h1.718v6.145c0 2.099.911 2.938 3.204 2.938.403 0 .777-.05 1.103-.11v-1.788c-.288.03-.45.05-.767.05-1.027 0-1.478-.5-1.478-1.64v-5.595h2.341v-1.808h-2.34v-2.688H99.23zm9.517 11.82c-1.794 0-2.801-1.368-2.801-3.747 0-2.358 1.007-3.737 2.801-3.737 1.785 0 2.802 1.38 2.802 3.737 0 2.369-1.017 3.748-2.802 3.748zm0 1.91c3.051 0 4.922-2.13 4.922-5.657 0-3.507-1.88-5.645-4.922-5.645-3.05 0-4.93 2.138-4.93 5.645 0 3.528 1.87 5.656 4.93 5.656zm5.863-.21h2.063V27.83c0-1.529 1.103-2.558 2.657-2.558.345 0 .979.07 1.142.13v-2.118c-.22-.06-.614-.09-.912-.09-1.362 0-2.513.78-2.81 1.848h-.154v-1.668h-1.986v10.881zm10.506-9.264c1.525 0 2.523 1.11 2.571 2.818h-5.277c.115-1.698 1.18-2.818 2.706-2.818zm2.561 6.326c-.383.849-1.237 1.318-2.484 1.318-1.65 0-2.716-1.209-2.783-3.117v-.12h7.378v-.75c0-3.417-1.756-5.485-4.663-5.485-2.945 0-4.816 2.208-4.816 5.685 0 3.478 1.833 5.616 4.826 5.616 2.389 0 4.058-1.199 4.528-3.147h-1.986zM51.002 8.582v6.866h2.38c1.965 0 3.103-1.261 3.103-3.455 0-2.16-1.147-3.411-3.102-3.411h-2.38zm1.024.97h1.242c1.366 0 2.175.904 2.175 2.456 0 1.575-.795 2.47-2.175 2.47h-1.242V9.551zm8.06 5.087c-.855 0-1.334-.652-1.334-1.784 0-1.123.48-1.78 1.334-1.78.85 0 1.334.657 1.334 1.78 0 1.127-.485 1.784-1.334 1.784zm0 .909c1.452 0 2.343-1.014 2.343-2.693 0-1.67-.895-2.689-2.343-2.689-1.453 0-2.349 1.018-2.349 2.689 0 1.68.891 2.693 2.349 2.693zm10.042-5.282h-.982l-.886 3.954h-.078l-1.023-3.954h-.941l-1.024 3.954h-.073l-.89-3.954h-.997l1.37 5.182h1.01l1.024-3.816h.077l1.028 3.816h1.02l1.365-5.182zm1.248 5.182h.983v-3.031c0-.81.484-1.313 1.274-1.313.731 0 1.088.414 1.088 1.246v3.098h.982v-3.355c0-1.232-.626-1.927-1.736-1.927-.75 0-1.33.348-1.572.923h-.073v-.823h-.946v5.182zm5.986 0h.982V8.244h-.982v7.204zm4.789-.81c-.854 0-1.334-.651-1.334-1.783 0-1.123.48-1.78 1.334-1.78.85 0 1.334.657 1.334 1.78 0 1.127-.484 1.784-1.334 1.784zm0 .91c1.453 0 2.343-1.014 2.343-2.693 0-1.67-.895-2.689-2.343-2.689-1.453 0-2.348 1.018-2.348 2.689 0 1.68.89 2.693 2.348 2.693zm5.383-.876c-.535 0-.923-.271-.923-.737 0-.457.31-.7.996-.747l1.215-.081v.433c0 .642-.548 1.132-1.288 1.132zm-.252.861c.654 0 1.197-.295 1.494-.813h.078v.728h.946v-3.54c0-1.095-.704-1.742-1.951-1.742-1.129 0-1.933.571-2.033 1.461h.95c.11-.366.489-.576 1.037-.576.672 0 1.019.31 1.019.857v.447l-1.348.08c-1.183.077-1.85.615-1.85 1.547 0 .947.699 1.551 1.658 1.551zm5.968 0c.685 0 1.265-.337 1.562-.904h.078v.819h.94V8.244h-.981v2.845h-.073c-.27-.57-.846-.909-1.526-.909-1.257 0-2.065 1.038-2.065 2.675 0 1.641.8 2.678 2.065 2.678zm.278-4.434c.823 0 1.339.68 1.339 1.76 0 1.085-.512 1.756-1.339 1.756-.831 0-1.33-.661-1.33-1.76 0-1.09.503-1.756 1.33-1.756zm8.902 3.54c-.855 0-1.334-.652-1.334-1.784 0-1.123.48-1.78 1.334-1.78.85 0 1.334.657 1.334 1.78 0 1.127-.485 1.784-1.334 1.784zm0 .909c1.453 0 2.343-1.014 2.343-2.693 0-1.67-.895-2.689-2.343-2.689-1.453 0-2.349 1.018-2.349 2.689 0 1.68.891 2.693 2.349 2.693zm3.756-.1h.982v-3.031c0-.81.485-1.313 1.275-1.313.73 0 1.087.414 1.087 1.246v3.098h.982v-3.355c0-1.232-.625-1.927-1.736-1.927-.749 0-1.33.348-1.571.923h-.073v-.823h-.946v5.182zm9.08-6.438v1.28h-.818v.861h.818v2.926c0 1 .434 1.4 1.525 1.4a2.9 2.9 0 0 0 .526-.053v-.852c-.137.015-.215.024-.366.024-.488 0-.703-.238-.703-.78V11.15h1.115v-.861h-1.115V9.01h-.982zm3.495 6.438h.983v-3.026c0-.786.498-1.314 1.302-1.314.74 0 1.11.419 1.11 1.247v3.093h.982v-3.345c0-1.233-.64-1.932-1.759-1.932-.749 0-1.325.347-1.567.928h-.077V8.244h-.974v7.204zm8.037-4.411c.727 0 1.202.528 1.225 1.342h-2.513c.055-.81.562-1.342 1.288-1.342zm1.22 3.012c-.183.404-.59.628-1.183.628-.786 0-1.293-.576-1.325-1.485v-.057h3.513v-.357c0-1.627-.836-2.612-2.22-2.612-1.403 0-2.293 1.052-2.293 2.708 0 1.655.872 2.674 2.298 2.674 1.137 0 1.932-.571 2.156-1.5h-.946zM37.202 23.2c-.03-3.485 2.74-5.18 2.867-5.26-1.57-2.382-4-2.707-4.855-2.733-2.043-.224-4.024 1.272-5.064 1.272-1.061 0-2.663-1.25-4.39-1.214-2.222.036-4.3 1.376-5.44 3.456-2.353 4.242-.598 10.476 1.656 13.905 1.127 1.68 2.445 3.555 4.17 3.489 1.687-.071 2.317-1.12 4.353-1.12 2.017 0 2.61 1.12 4.368 1.077 1.81-.028 2.95-1.686 4.039-3.382 1.303-1.922 1.826-3.82 1.847-3.918-.042-.014-3.516-1.394-3.551-5.572M33.88 12.951c.907-1.182 1.528-2.79 1.355-4.422-1.313.06-2.955.946-3.901 2.102-.837 1.02-1.585 2.689-1.392 4.259 1.476.114 2.99-.775 3.938-1.939" fill="#28232D"></path></g></svg>