<?xml version="1.0" encoding="UTF-8" standalone="no"?>

<svg xmlns="http://www.w3.org/2000/svg" width="155" height="48" viewBox="0 0 155 48"><g fill="none" fill-rule="evenodd" transform="translate(.781 1)"><rect width="152.876" height="46" fill="#FFF" stroke="#E6E6E6" rx="5.197"></rect><g fill="#28232D"><path d="M80.597 16.204c-1.858 0-3.365-1.568-3.365-3.502 0-1.934 1.507-3.503 3.365-3.503 1.858 0 3.365 1.569 3.365 3.503 0 1.934-1.507 3.502-3.365 3.502zm0-1.07c1.29 0 2.337-1.089 2.337-2.432s-1.047-2.432-2.337-2.432c-1.29 0-2.337 1.089-2.337 2.432s1.047 2.432 2.337 2.432zm-22.805-2.043v2.14h2.71v.779h-3.738V9.49h3.739v.779h-2.71v2.043h2.43v.778h-2.43zm6.356-2.821v5.74H63.12v-5.74h-1.59v-.78h4.207v.779h-1.59zm9.159 0v5.74h-1.028v-5.74H70.69v-.78h4.206v.779h-1.589zm-4.579-.779h1.028v6.518h-1.028zm17.102 0h.188l2.804 4.77V9.49h1.028v6.519h-1.028l-2.991-5.088v5.088h-1.028V9.49h1.028zm-32.918 2.936h2.815l-.028.927h-2.787z"></path><path d="M55.173 10.245l-.644.67c-.402-.428-.973-.662-1.63-.662-1.317 0-2.384 1.11-2.384 2.478s1.067 2.478 2.383 2.478 2.25-.791 2.248-2.478c.003-.104 0-.206-.006-.304h.822v.034c.31 2.362-1.237 3.721-3.092 3.704-1.824-.003-3.302-1.537-3.302-3.434 0-1.897 1.478-3.434 3.302-3.434.954 0 1.755.346 2.303.948z"></path></g><g fill="#28232D"><path d="M107.888 21.166h5.299s3.05.54 3.05 4.187c0 3.646-3.05 4.186-3.05 4.186h-5.3v-8.373zm1.028 2.025v4.494h3.597s1.637 0 1.637-2.247-1.637-2.247-1.637-2.247h-3.597z"></path><path d="M107.42 21.166h1.87v13.621h-1.87zm9.907 0h1.87v13.62h-1.87zm8.798 12.647c-.515.442-1.338.858-2.638.943-2.978.193-2.98-2.636-2.98-2.826 0-.191-.147-2.498 2.222-2.865 1.678-.26 2.853.173 3.396.448v-.4c-.133-.53-.546-1.504-1.785-1.504-1.702 0-2.078.957-2.078.957l-1.557-.957s.871-1.87 3.485-1.87c3.251 0 3.804 2.334 3.804 3.12v5.923h-1.869v-.97zm-.134-2.918s-3.6-1.01-3.726 1.096c-.125 2.106 3.455 1.095 3.775-.398 0-.475-.049-.698-.049-.698zm5.511 3.375l-3.333-8.24h1.87l2.397 5.93 2.38-5.882h1.868l-5.057 12.503h-1.869l1.744-4.311zm-28.266-5.055l-5.912 2.543s.382 1.407 2.16 1.416c1.391.007 2.177-1.284 2.177-1.284l1.5 1.057s-1.21 2.038-3.69 2.038c-3.046 0-4.387-2.773-4.387-4.574 0-1.734 1.065-4.672 4.198-4.672 3.134 0 3.954 3.476 3.954 3.476zm-2.25-.72s-.743-1.179-1.884-.962c-2.413.46-2.11 2.658-2.11 2.658l3.995-1.697zm-8.706-7.329h1.977v13.592H92.28zm-3.165 4.868l1.828.017v8.576c0 2.191-1.253 4.504-4.203 4.504s-3.904-2.721-3.904-2.721l1.68-.735s.511 1.677 2.31 1.677c2.05 0 2.29-1.941 2.29-2.605v-.931s-.71 1.155-2.471 1.155c-1.91 0-4.179-1.703-4.179-4.606 0-2.904 2.137-4.564 4.201-4.625 1.653-.048 2.448 1.142 2.448 1.142v-.848zm-2.314 7.194c1.333 0 2.414-1.27 2.414-2.839 0-1.568-1.08-2.839-2.414-2.839-1.333 0-2.414 1.271-2.414 2.84 0 1.567 1.081 2.838 2.414 2.838zm-9.605 1.753c-2.458 0-4.45-2.069-4.45-4.62 0-2.553 1.992-4.622 4.45-4.622 2.457 0 4.45 2.069 4.45 4.621 0 2.552-1.993 4.621-4.45 4.621zm-.03-1.812c1.382 0 2.502-1.258 2.502-2.809 0-1.551-1.12-2.809-2.501-2.809-1.382 0-2.501 1.258-2.501 2.81 0 1.55 1.12 2.808 2.5 2.808zm-9.596 1.812c-2.458 0-4.45-2.069-4.45-4.62 0-2.553 1.992-4.622 4.45-4.622 2.456 0 4.449 2.069 4.449 4.621 0 2.552-1.993 4.621-4.45 4.621zm-.03-1.812c1.381 0 2.501-1.258 2.501-2.809 0-1.551-1.12-2.809-2.501-2.809-1.381 0-2.501 1.258-2.501 2.81 0 1.55 1.12 2.808 2.501 2.808zm-11.46-5.965h5.874l-.058 1.933H56.08z"></path><path d="M60.798 22.656l-1.344 1.396c-.838-.89-2.03-1.379-3.403-1.379-2.747 0-4.973 2.313-4.973 5.165 0 2.853 2.226 5.165 4.973 5.165 2.746 0 4.696-1.649 4.692-5.165.005-.217 0-.429-.014-.634h1.716v.072c.646 4.922-2.582 7.757-6.452 7.72-3.807-.005-6.893-3.204-6.893-7.158 0-3.953 3.086-7.158 6.893-7.158 1.99 0 3.662.722 4.805 1.976z"></path></g><path fill="#28232D" d="M20.987 36.73c-.463-.127-.765-.597-.765-1.325V11.37c0-.674.256-1.129.66-1.294L32.435 23.47 20.987 36.73zm1.59-.51l13.905-8.057-3.387-3.926L22.577 36.22zm14-17.55l-13.71-7.947 10.248 11.958 3.463-4.01zm.931.54l5.371 3.112c1.017.59 1.026 1.54 0 2.135l-5.507 3.19-3.592-4.19 3.728-4.248z"></path></g></svg>